<?xml version="1.0" encoding="iso-8859-1"?>
<!-- Generator: Adobe Illustrator 19.0.0, SVG Export Plug-In . SVG Version: 6.00 Build 0)  -->
<svg version="1.1" id="Capa_1" xmlns="http://www.w3.org/2000/svg" xmlns:xlink="http://www.w3.org/1999/xlink" x="0px" y="0px"
	 viewBox="0 0 512.001 512.001" style="enable-background:new 0 0 512.001 512.001;" xml:space="preserve">
<path style="fill:#EA473B;" d="M493.927,57.383H158.469c-7.774,0-15.863,5.118-18.121,11.418L32.898,353.595
	c-2.188,6.315,2.25,11.434,9.983,11.434h349.295c7.744,0,15.839-5.119,18.095-11.434l93.656-284.794
	C506.148,62.501,501.657,57.383,493.927,57.383z M347.528,253.736l42.876,91.208h-78.035l-22.374-57.067l-24.835,17.08
	l-12.75,39.986h-58.728l35.606-111.353H99.831c19.375-57.291,61.18-74.631,99.247-82.34l46.973-9.461
	c7.99-1.505,13.275-5.357,15.266-11.595c2.768-8.551-6.654-11.981-20.59-11.981c-16.276,0-33.237,1.483-41.181,20.788H135.21
	c20.882-51.242,72.194-58.094,110.156-58.094c48.891,0,92.021,8.581,78.735,50.188c-9.066,28.268-41.852,39.67-64.583,43.703
	l-57.08,10.102c-13.637,2.35-21.541,5.759-26.992,11.383H300.03l-16.879,52.45l71.355-52.45h77.826L347.528,253.736z"/>
<g>
	<path style="fill:#D82B27;" d="M54.49,353.595l46.133-122.275c0.689-1.94,1.403-3.835,2.144-5.682l32.686-86.635h-0.242
		c0.578-1.419,1.184-2.797,1.808-4.15L161.94,68.8c2.258-6.3,10.347-11.418,18.121-11.418H158.47
		c-7.774,0-15.863,5.118-18.121,11.418L32.898,353.595c-2.188,6.315,2.25,11.434,9.983,11.434h21.592
		C56.739,365.03,52.302,359.911,54.49,353.595z"/>
	<path style="fill:#D82B27;" d="M266.958,80.909c-3.256,0-6.611,0.052-10.035,0.176c43.852,1.402,79.405,11.721,67.18,50.011
		c-9.066,28.268-41.852,39.67-64.583,43.703l-57.08,10.102c-13.637,2.35-21.541,5.759-26.992,11.383h21.592
		c5.452-5.623,13.355-9.033,26.992-11.383l57.08-10.102c22.729-4.032,55.517-15.435,64.583-43.703
		C358.979,89.489,315.848,80.909,266.958,80.909z"/>
	<path style="fill:#D82B27;" d="M309.926,196.285h-9.895l-16.879,52.45l28.281-20.788l6.115-19.001
		C321.447,196.821,311.25,196.301,309.926,196.285z"/>
	<path style="fill:#D82B27;" d="M249.678,118.804c-2.671-0.398-5.683-0.589-8.948-0.589c-16.276,0-33.237,1.483-41.181,20.788
		h21.592C227.022,124.71,237.848,120.19,249.678,118.804z"/>
	<path style="fill:#D82B27;" d="M435.987,196.285h-3.655l-84.804,57.451l42.876,91.208h9.507c1.747-0.032,11.701-0.8,5.305-14.42
		l-36.097-76.788l66.869-45.302C453.695,196.439,435.987,196.285,435.987,196.285z"/>
	<path style="fill:#D82B27;" d="M289.995,287.879l-24.835,17.08l-12.75,39.986h10.801c0,0,10.751,0.121,14.766-12.467l0,0
		l8.775-27.519l7.829-5.385L289.995,287.879z"/>
</g>
<path d="M20.656,436.52c-0.569-0.821-1.504-1.313-2.504-1.313H7.381c-1.27,0-2.406,0.788-2.851,1.976
	c-3.602,9.607-6.388,14.457-2.997,19.808c2.06,3.241,5.975,5.101,10.738,5.101H37.62c8.805,0,18.017-6.134,20.973-13.97
	l5.542-14.792c0.041-0.108,0.074-0.218,0.104-0.33l0.679-2.715c0.031-0.125,0.055-0.254,0.07-0.384
	c0.456-3.887-1.053-9.074-10.816-11.696c-19.547-5.317-21.879-5.729-22.372-6.463c0.265-1.002-0.216,0.366,3.588-9.784
	c0.439-1.186,2.334-2.564,4.122-2.564h17.783l1.447,0.495l-0.012,0.751l-2.66,7.099c-0.743,1.984,0.72,4.112,2.851,4.112h10.796
	c1.268,0,2.404-0.786,2.849-1.974c3.822-10.173,6.589-14.871,3.13-20.292c-2.05-3.215-5.961-5.059-10.73-5.059h-24.59
	c-8.815,0-18.027,6.136-20.977,13.976c-0.086,0.231-5.066,13.544-5.133,13.782c-0.087,0.331-0.773,2.864-0.81,3.204
	c-0.429,3.786,1.131,8.873,10.991,11.605l20.208,5.577c0.953,0.248,1.64,0.515,2.038,0.79c0.029,0.022,0.061,0.041,0.092,0.061
	l-4.177,11.086c-0.526,1.387-2.52,2.604-4.265,2.604H19.957l-1.453-0.511v-0.739C21.071,439.141,21.824,438.212,20.656,436.52z"/>
<path d="M133.309,419.189l7.174-19.205c0.037-0.098,0.068-0.195,0.094-0.297l0.757-2.903c0.039-0.147,0.066-0.299,0.082-0.452
	c0.26-2.488-0.236-4.758-1.49-6.77c-2.036-3.199-5.949-5.033-10.736-5.033H89.347c-1.27,0-2.404,0.787-2.851,1.976
	c-28.76,76.745-27.733,72.404-26.437,74.276c1.175,1.696,1.812,1.311,13.304,1.311c1.27,0,2.406-0.788,2.851-1.977l10.088-26.946
	h26.005C121.136,433.168,130.361,427.03,133.309,419.189z M122.954,400.642l-5.661,15.073c-0.513,1.398-2.361,2.492-4.21,2.492
	H91.906c0.753-2.01,2.017-5.364,3.29-8.742l0.098-0.263c1.541-4.09,3.066-8.133,3.652-9.718h22.513l1.553,0.502L122.954,400.642z"/>
<path d="M138.629,462.092h27.846c8.807,0,18.021-6.134,20.975-13.969l18.103-48.301c1.379-3.752,1.156-7.387-0.642-10.252
	c-2.04-3.203-5.946-5.04-10.714-5.04h-27.858c-8.758,0-17.904,6.136-20.816,13.962l-18.127,48.294
	c-1.432,3.763-1.215,7.411,0.603,10.263C130.023,460.253,133.898,462.092,138.629,462.092z M144.994,445.965l16.471-43.975
	c0.462-1.21,2.277-2.506,4.245-2.506h20.853l1.408,0.407l-0.066,0.751l-16.467,43.967c-0.513,1.354-2.383,2.498-4.083,2.498h-20.859
	l-1.529-0.517L144.994,445.965z"/>
<path d="M270.669,399.679l0.749-2.923c0.039-0.152,0.066-0.309,0.082-0.466c0.24-2.52-0.254-4.776-1.48-6.72
	c-2.05-3.204-5.967-5.042-10.744-5.042h-40.845c-1.27,0-2.404,0.787-2.851,1.975c-28.78,76.743-27.754,72.409-26.456,74.277
	c1.174,1.7,1.824,1.311,13.316,1.311c1.609,0,2.475-0.976,3.036-2.471c2.438-6.504,8.92-23.798,10.006-26.699h14.985
	c0.521,2.931,4.152,22.734,4.875,26.676c0.264,1.443,1.523,2.494,2.993,2.494c13.371,0,13.487,0.327,14.672-1.096
	c0.577-0.694,0.817-1.61,0.655-2.498c-1.342-7.305-4.314-23.474-4.912-26.75c7.034-2.184,12.526-6.95,14.682-12.743l7.136-19.014
	C270.609,399.891,270.642,399.786,270.669,399.679z M247.412,415.607c-0.528,1.387-2.371,2.473-4.197,2.473H221.03
	c1.759-4.612,6.051-16.081,6.99-18.596h23.534l1.531,0.502l0.061,0.27L247.412,415.607z"/>
<path d="M276.225,460.781c1.177,1.696,1.809,1.311,13.271,1.311c1.268,0,2.404-0.786,2.851-1.974
	c8.021-21.366,21.64-57.657,22.733-60.634h21.531c1.268,0,2.404-0.788,2.851-1.976l3.323-8.867c0.351-0.935,0.219-1.982-0.349-2.803
	c-0.569-0.819-1.504-1.31-2.502-1.31h-58.001c-1.27,0-2.404,0.787-2.851,1.975l-3.323,8.867c-0.353,0.935-0.221,1.983,0.349,2.802
	c0.567,0.82,1.502,1.311,2.502,1.311h19.215C274.764,461.682,274.767,458.678,276.225,460.781z"/>
<path d="M378.823,410.546c0.569,0.818,1.502,1.307,2.5,1.307h10.787c1.27,0,2.406-0.788,2.853-1.977l3.742-10.007
	c3.225-8.563-2.158-15.34-11.293-15.34h-24.606c-8.823,0-18.058,6.136-21.032,13.984l-5.026,13.463
	c-3.093,8.109,1.75,12.806,10.079,15.12c21.321,5.884,21.479,5.785,22.368,6.43c-7.304,16.183,0.887,13.688-26.838,13.688
	l-1.481-0.511l0.018-0.738l2.498-6.643c0.752-1.997-0.736-4.116-2.849-4.116h-10.761c-1.268,0-2.404,0.786-2.851,1.974
	c-3.619,9.63-6.418,14.411-2.987,19.835c2.052,3.226,5.953,5.076,10.699,5.076h25.338c8.834,0,18.07-6.134,21.026-13.974
	l5.519-14.795c0.037-0.103,0.07-0.207,0.098-0.314l0.689-2.709c0.033-0.135,0.059-0.273,0.074-0.413
	c0.435-3.893-1.092-9.079-10.826-11.679c-19.089-5.187-21.742-5.681-22.311-6.449c0.219-1.08-0.271,0.35,3.52-9.765
	c0.528-1.384,2.465-2.597,4.144-2.597h17.775l1.469,0.495l-0.033,0.751C378.361,408.039,377.661,408.872,378.823,410.546z"/>
<path d="M439.514,194.08c-0.969-3.154-3.881-5.309-7.182-5.309h-77.826c-1.601,0-3.159,0.511-4.449,1.459l-52.64,38.693
	l9.764-30.339c0.735-2.286,0.334-4.785-1.08-6.726c-1.414-1.941-3.67-3.088-6.071-3.088h-76.357l37.16-6.577
	c21.689-3.848,59.68-15.307,70.426-48.814c4.694-14.702,3.473-27.085-3.63-36.81c-11.549-15.81-37.689-23.174-82.262-23.174
	c-26.262,0-46.69,3.296-64.286,10.374c-24.979,10.047-42.753,27.676-52.826,52.398c-0.944,2.317-0.673,4.95,0.723,7.026
	c1.395,2.075,3.733,3.32,6.234,3.32h50.837c-33.257,8.504-74.129,27.889-93.332,84.671c-0.775,2.293-0.399,4.819,1.013,6.785
	c1.41,1.967,3.683,3.133,6.104,3.133h119.167l-6.662,20.836c-1.264,3.951,0.915,8.179,4.867,9.443
	c3.953,1.265,8.179-0.915,9.443-4.867l9.796-30.636c1.549-4.846-2.073-9.8-7.154-9.8H110.712
	c20.126-47.504,58.243-61.063,89.85-67.464l46.882-9.444c13.81-2.603,19.06-10.514,21.023-16.663
	c1.562-4.823,0.931-9.526-1.773-13.244c-4.192-5.762-12.684-8.563-25.965-8.563c-12.304,0-34.516,0.001-45.912,20.788h-47.63
	c21.931-38.352,65.92-43.07,98.178-43.07c38.289,0,61.884,5.723,70.13,17.011c4.175,5.715,4.649,13.361,1.453,23.37
	c-8.649,26.967-43.961,35.978-58.738,38.6l-57.047,10.096c-15.118,2.605-24.423,6.659-31.111,13.557
	c-2.1,2.166-2.7,5.379-1.523,8.158c1.176,2.777,3.9,4.583,6.917,4.583H289.72l-13.721,42.636
	c-2.225,6.916,5.745,12.655,11.601,8.354l69.369-50.991h50.881l-64.536,43.72c-3.063,2.073-4.159,6.069-2.585,9.414l37.842,80.501
	h-61.08l-20.504-52.296c-1.762-4.496-7.268-6.189-11.25-3.448c-26.87,18.48-26.693,17.72-27.735,20.988l-11.083,34.756h-42.949
	l11.466-35.861c1.264-3.951-0.915-8.179-4.867-9.443c-3.952-1.266-8.18,0.915-9.443,4.867l-14.6,45.66
	c-0.731,2.284-0.327,4.78,1.088,6.718c1.414,1.937,3.669,3.082,6.068,3.082h58.727c3.27,0,6.163-2.114,7.158-5.23l11.969-37.536
	l14.92-10.26l18.92,48.256c1.128,2.878,3.902,4.771,6.993,4.771h78.035c5.505,0,9.136-5.737,6.798-10.707L357.06,256.35
	l79.487-53.849C439.278,200.653,440.482,197.235,439.514,194.08z M240.73,125.727c8.906,0,12.374,1.501,13.448,2.14
	c-2.238,6.438-5.815,5.795-47.793,14.251C211.01,131.892,216.406,125.727,240.73,125.727z"/>
<path d="M390.509,49.871H158.47c-10.987,0-21.792,7.015-25.168,16.329c-0.062,0.164-107.444,284.772-107.501,284.937
	c-3.768,10.878,3.777,21.404,17.081,21.404h349.295c11.006,0,21.826-7.059,25.169-16.42c0.022-0.06,0.042-0.119,0.063-0.18
	l93.633-284.728c1.735-4.997,1.094-10.17-1.763-14.205c-3.211-4.536-8.807-7.138-15.352-7.138h-68.363
	c-4.15,0-7.512,3.363-7.512,7.512s3.362,7.512,7.512,7.512h68.363c2.063,0,2.975,0.637,3.054,0.71c0.01,0.058,0.004,0.295-0.138,0.7
	c-0.018,0.049-0.035,0.1-0.052,0.15l-93.619,284.682c-1.117,2.967-6.124,6.381-10.996,6.381c-366.379,0-351.299,0.347-352.32-0.711
	c0-0.582,107.361-284.925,107.564-285.472c1.068-2.978,6.126-6.44,11.049-6.44h232.04c4.15,0,7.512-3.363,7.512-7.512
	S394.658,49.871,390.509,49.871z"/>
<g>
</g>
<g>
</g>
<g>
</g>
<g>
</g>
<g>
</g>
<g>
</g>
<g>
</g>
<g>
</g>
<g>
</g>
<g>
</g>
<g>
</g>
<g>
</g>
<g>
</g>
<g>
</g>
<g>
</g>
</svg>
